# xmcd
# Copyright (C) 1995-1998 Ti Kan
#
# Track frame offsets:
#       150
#       20560
#       32115
#       43285
#       59165
#       71153
#       82588
#
# Disc length: 1319 seconds
#
# Revision: 6
# Processed by: cddbd v1.5.2PL0 Copyright (c) Steve Scherf et al.
# Submitted via: CD-Import v1.0
#
DISCID=5f052507
DTITLE=Manfred Mann - 
DYEAR=1900
DGENRE=
TTITLE0=I Put A Spell On You
TTITLE1=I Put A Spell On You
TTITLE2=I Put A Spell On You
TTITLE3=I Put A Spell On You
TTITLE4=I Put A Spell On You
TTITLE5=I Put A Spell On You
TTITLE6=I Put A Spell On You
EXTD=
EXTT0=
EXTT1=
EXTT2=
EXTT3=
EXTT4=
EXTT5=
EXTT6=
PLAYORDER=
